<svg preserveAspectRatio='xMidYMid meet' focusable='false' visibility='hidden'
	pointerEvents="none">
	<!-- Alert Circle -->
	<symbol id='alert-circle' viewBox='0 0 24 24' fill='none' stroke-width='2'
		stroke-linecap='round' stroke-linejoin='round'>
		<circle cx='12' cy='12' r='10'></circle>
		<line x1='12' y1='8' x2='12' y2='12'></line>
		<line x1='12' y1='16' x2='12.01' y2='16'></line>
	</symbol>

	<!-- Close Circle -->
	<symbol viewBox='0 0 24 24' fill='none' stroke-width='2'
		stroke-linecap='round' stroke-linejoin='round' id='close-circle'>
		<circle cx='12' cy='12' r='10'></circle>
		<line x1='15' y1='9' x2='9' y2='15'></line>
		<line x1='9' y1='9' x2='15' y2='15'></line>
	</symbol>

	<!-- Close -->
	<symbol viewBox='0 0 24 24' fill='none' stroke-width='2'
		stroke-linecap='round' stroke-linejoin='round' id='close'>
		<line x1='18' y1='6' x2='6' y2='18'></line>
		<line x1='6' y1='6' x2='18' y2='18'></line>
	</symbol>

	<!-- Check Circle -->
	<symbol viewBox='0 0 24 24' fill='none' stroke-width='2'
		stroke-linecap='round' stroke-linejoin='round' id='check-circle'>
		<path d='M22 11.08V12a10 10 0 1 1-5.93-9.14'></path>
		<polyline points='22 4 12 14.01 9 11.01'></polyline>
	</symbol>

	<!-- Check -->
	<symbol viewBox='0 0 24 24' fill='none' stroke-width='2'
		stroke-linecap='round' stroke-linejoin='round' id='check'>
		<polyline points='20 6 9 17 4 12'></polyline>
	</symbol>

	<!-- Notification -->
	<symbol viewBox='0 0 24 24' fill='none' stroke-width='2'
		stroke-linecap='round' stroke-linejoin='round' id='notification'>
		<path d='M18 8A6 6 0 0 0 6 8c0 7-3 9-3 9h18s-3-2-3-9'></path>
		<path d='M13.73 21a2 2 0 0 1-3.46 0'></path>
	</symbol>

	<symbol id="notification-alt" viewBox='0 0 512 512'>
		<path
			d='M427.68 351.43C402 320 383.87 304 383.87 217.35 383.87 138 343.35 109.73 310 96c-4.43-1.82-8.6-6-9.95-10.55C294.2 65.54 277.8 48 256 48s-38.21 17.55-44 37.47c-1.35 4.6-5.52 8.71-9.95 10.53-33.39 13.75-73.87 41.92-73.87 121.35C128.13 304 110 320 84.32 351.43 73.68 364.45 83 384 101.61 384h308.88c18.51 0 27.77-19.61 17.19-32.57zM320 384v16a64 64 0 01-128 0v-16'
			fill='none' stroke-linecap='round' stroke-linejoin='round'
			stroke-width='32' />
	</symbol>

	<!-- Search -->
	<symbol viewBox='0 0 24 24' fill='none' stroke-width='2'
		stroke-linecap='round' stroke-linejoin='round' id='search'>
		<circle cx='11' cy='11' r='8'></circle>
		<line x1='21' y1='21' x2='16.65' y2='16.65'></line>
	</symbol>

	<symbol id="search-alt" viewBox='0 0 512 512'>
		<path
			d='M221.09 64a157.09 157.09 0 10157.09 157.09A157.1 157.1 0 00221.09 64z'
			fill='none' stroke-miterlimit='10' stroke-width='32' />
		<path fill='none' stroke-linecap='round' stroke-miterlimit='10'
			stroke-width='32' d='M338.29 338.29L448 448' />
	</symbol>

	<!-- Settings -->
	<symbol viewBox='0 0 24 24' fill='none' stroke-width='2'
		stroke-linecap='round' stroke-linejoin='round' id='settings'>
		<circle cx='12' cy='12' r='3'></circle>
		<path
			d='M19.4 15a1.65 1.65 0 0 0 .33 1.82l.06.06a2 2 0 0 1 0 2.83 2 2 0 0 1-2.83 0l-.06-.06a1.65 1.65 0 0 0-1.82-.33 1.65 1.65 0 0 0-1 1.51V21a2 2 0 0 1-2 2 2 2 0 0 1-2-2v-.09A1.65 1.65 0 0 0 9 19.4a1.65 1.65 0 0 0-1.82.33l-.06.06a2 2 0 0 1-2.83 0 2 2 0 0 1 0-2.83l.06-.06a1.65 1.65 0 0 0 .33-1.82 1.65 1.65 0 0 0-1.51-1H3a2 2 0 0 1-2-2 2 2 0 0 1 2-2h.09A1.65 1.65 0 0 0 4.6 9a1.65 1.65 0 0 0-.33-1.82l-.06-.06a2 2 0 0 1 0-2.83 2 2 0 0 1 2.83 0l.06.06a1.65 1.65 0 0 0 1.82.33H9a1.65 1.65 0 0 0 1-1.51V3a2 2 0 0 1 2-2 2 2 0 0 1 2 2v.09a1.65 1.65 0 0 0 1 1.51 1.65 1.65 0 0 0 1.82-.33l.06-.06a2 2 0 0 1 2.83 0 2 2 0 0 1 0 2.83l-.06.06a1.65 1.65 0 0 0-.33 1.82V9a1.65 1.65 0 0 0 1.51 1H21a2 2 0 0 1 2 2 2 2 0 0 1-2 2h-.09a1.65 1.65 0 0 0-1.51 1z'>
		</path>
	</symbol>

	<!-- Help Circle -->
	<symbol fill='none' stroke-width='2' stroke-linecap='round'
		stroke-linejoin='round' id='help-circle'>
		<circle cx='12' cy='12' r='10'></circle>
		<path d='M9.09 9a3 3 0 0 1 5.83 1c0 2-3 3-3 3'></path>
		<line x1='12' y1='17' x2='12.01' y2='17'></line>
	</symbol>

	<!-- Edit -->
	<symbol viewBox='0 0 24 24' fill='none' stroke-width='2'
		stroke-linecap='round' stroke-linejoin='round' id='edit'>
		<path d='M17 3a2.828 2.828 0 1 1 4 4L7.5 20.5 2 22l1.5-5.5L17 3z'>
		</path>
	</symbol>

	<!-- Edit Solid -->
	<symbol id='edit-solid' viewBox='0 0 512 512'>
		<path fill='currentColor'
			d='M290.74 93.24l128.02 128.02-277.99 277.99-114.14 12.6C11.35 513.54-1.56 500.62.14 485.34l12.7-114.22 277.9-277.88zm207.2-19.06l-60.11-60.11c-18.75-18.75-49.16-18.75-67.91 0l-56.55 56.55 128.02 128.02 56.55-56.55c18.75-18.76 18.75-49.16 0-67.91z'>
		</path>
	</symbol>

	<!-- Calendar -->
	<symbol viewBox='0 0 24 24' fill='none' stroke-width='2'
		stroke-linecap='round' stroke-linejoin='round' id='calendar'>
		<rect x='3' y='4' width='18' height='18' rx='2' ry='2'></rect>
		<line x1='16' y1='2' x2='16' y2='6'></line>
		<line x1='8' y1='2' x2='8' y2='6'></line>
		<line x1='3' y1='10' x2='21' y2='10'></line>
	</symbol>

	<!-- Clock -->
	<symbol viewBox='0 0 24 24' fill='none' stroke-width='2'
		stroke-linecap='round' stroke-linejoin='round' id='clock'>
		<circle cx='12' cy='12' r='10'></circle>
		<polyline points='12 6 12 12 16 14'></polyline>
	</symbol>

	<!-- Map Pin -->
	<!-- <symbol viewBox='0 0 24 24' fill='none' stroke-width='2'
		stroke-linecap='round' stroke-linejoin='round' id='map-pin'>
		<path d='M21 10c0 7-9 13-9 13s-9-6-9-13a9 9 0 0 1 18 0z'></path>
		<circle cx='12' cy='10' r='3'></circle>
	</symbol> -->
	<symbol id="map-pin" viewBox="0 0 24 24">
		<g data-name="Layer 2">
			<g data-name="pin">
				<rect width="24" height="24" opacity="0" />
				<path
					d="M12 2a8 8 0 0 0-8 7.92c0 5.48 7.05 11.58 7.35 11.84a1 1 0 0 0 1.3 0C13 21.5 20 15.4 20 9.92A8 8 0 0 0 12 2zm0 17.65c-1.67-1.59-6-6-6-9.73a6 6 0 0 1 12 0c0 3.7-4.33 8.14-6 9.73z" />
				<path
					d="M12 6a3.5 3.5 0 1 0 3.5 3.5A3.5 3.5 0 0 0 12 6zm0 5a1.5 1.5 0 1 1 1.5-1.5A1.5 1.5 0 0 1 12 11z" />
			</g>
		</g>
	</symbol>

	<!-- Trash -->
	<symbol id='trash' viewBox='0 0 24 24' fill='none' stroke-width='2'
		stroke-linecap='round' stroke-linejoin='round' stroke="currentColor">
		<polyline points='3 6 5 6 21 6'></polyline>
		<path
			d='M19 6v14a2 2 0 0 1-2 2H7a2 2 0 0 1-2-2V6m3 0V4a2 2 0 0 1 2-2h4a2 2 0 0 1 2 2v2'>
		</path>
		<line x1='10' y1='11' x2='10' y2='17'></line>
		<line x1='14' y1='11' x2='14' y2='17'></line>
	</symbol>

	<!-- Trash Alt -->
	<symbol id='trash-alt' viewBox='0 0 24 24' fill='none' stroke-width='2'
		stroke-linecap='round' stroke-linejoin='round'>
		<polyline points='3 6 5 6 21 6'></polyline>
		<path
			d='M19 6v14a2 2 0 0 1-2 2H7a2 2 0 0 1-2-2V6m3 0V4a2 2 0 0 1 2-2h4a2 2 0 0 1 2 2v2'>
		</path>
	</symbol>

	<!-- Chevron Down -->
	<symbol viewBox='0 0 24 24' fill='none' stroke-width='2'
		stroke-linecap='round' stroke-linejoin='round' id='chevron-down'>
		<polyline points='6 9 12 15 18 9'></polyline>
	</symbol>

	<!-- Chevron Right -->
	<symbol viewBox='0 0 24 24' fill='none' stroke-width='2'
		stroke-linecap='round' stroke-linejoin='round' id='chevron-right'>
		<polyline points='9 18 15 12 9 6'></polyline>
	</symbol>

	<!-- Chevron Left -->
	<symbol viewBox='0 0 24 24' fill='none' stroke-width='2'
		stroke-linecap='round' stroke-linejoin='round' id='chevron-left'>
		<polyline points='15 18 9 12 15 6'></polyline>
	</symbol>

	<!-- Chevron Up -->
	<symbol viewBox='0 0 24 24' fill='none' stroke-width='2'
		stroke-linecap='round' stroke-linejoin='round' id='chevron-up'>
		<polyline points='18 15 12 9 6 15'></polyline>
	</symbol>

	<!-- Arrow Left -->
	<symbol id="arrow-left" viewBox="0 0 24 24">
		<g data-name="Layer 2">
			<g data-name="arrow-back">
				<rect width="24" height="24" transform="rotate(90 12 12)"
					opacity="0" />
				<path
					d="M19 11H7.14l3.63-4.36a1 1 0 1 0-1.54-1.28l-5 6a1.19 1.19 0 0 0-.09.15c0 .05 0 .08-.07.13A1 1 0 0 0 4 12a1 1 0 0 0 .07.36c0 .05 0 .08.07.13a1.19 1.19 0 0 0 .09.15l5 6A1 1 0 0 0 10 19a1 1 0 0 0 .64-.23 1 1 0 0 0 .13-1.41L7.14 13H19a1 1 0 0 0 0-2z" />
			</g>
		</g>
	</symbol>

	<!-- Home -->
	<symbol id="home" viewBox='0 0 512 512'>
		<path
			d='M80 212v236a16 16 0 0016 16h96V328a24 24 0 0124-24h80a24 24 0 0124 24v136h96a16 16 0 0016-16V212'
			fill='none' stroke-linecap='round' stroke-linejoin='round'
			stroke-width='32' />
		<path
			d='M480 256L266.89 52c-5-5.28-16.69-5.34-21.78 0L32 256M400 179V64h-48v69'
			fill='none' stroke-linecap='round' stroke-linejoin='round'
			stroke-width='32' />
	</symbol>

	<!-- Mail -->
	<symbol id="mail" viewBox='0 0 512 512'>
		<rect x='48' y='96' width='416' height='320' rx='40' ry='40' fill='none'
			stroke-linecap='round' stroke-linejoin='round' stroke-width='32' />
		<path fill='none' stroke-linecap='round' stroke-linejoin='round'
			stroke-width='32' d='M112 160l144 112 144-112' />
	</symbol>

	<!-- Birthday Cake -->
	<symbol id="cake" viewBox="0 0 448 512">
		<path
			d="M448 384c-28.02 0-31.26-32-74.5-32-43.43 0-46.825 32-74.75 32-27.695 0-31.454-32-74.75-32-42.842 0-47.218 32-74.5 32-28.148 0-31.202-32-74.75-32-43.547 0-46.653 32-74.75 32v-80c0-26.5 21.5-48 48-48h16V112h64v144h64V112h64v144h64V112h64v144h16c26.5 0 48 21.5 48 48v80zm0 128H0v-96c43.356 0 46.767-32 74.75-32 27.951 0 31.253 32 74.75 32 42.843 0 47.217-32 74.5-32 28.148 0 31.201 32 74.75 32 43.357 0 46.767-32 74.75-32 27.488 0 31.252 32 74.5 32v96zM96 96c-17.75 0-32-14.25-32-32 0-31 32-23 32-64 12 0 32 29.5 32 56s-14.25 40-32 40zm128 0c-17.75 0-32-14.25-32-32 0-31 32-23 32-64 12 0 32 29.5 32 56s-14.25 40-32 40zm128 0c-17.75 0-32-14.25-32-32 0-31 32-23 32-64 12 0 32 29.5 32 56s-14.25 40-32 40z">
		</path>
	</symbol>

	<!-- Heart -->
	<symbol viewBox="0 0 24 24" fill="none" stroke="currentColor"
		stroke-width="2" stroke-linecap="round" stroke-linejoin="round"
		id="heart">
		<path
			d="M20.84 4.61a5.5 5.5 0 0 0-7.78 0L12 5.67l-1.06-1.06a5.5 5.5 0 0 0-7.78 7.78l1.06 1.06L12 21.23l7.78-7.78 1.06-1.06a5.5 5.5 0 0 0 0-7.78z">
		</path>
	</symbol>

	<!-- Comment -->
	<symbol id="comment" viewBox="0 0 24 24" fill="none" stroke-width="2"
		stroke-linecap="round" stroke-linejoin="round">
		<path
			d="M21 11.5a8.38 8.38 0 0 1-.9 3.8 8.5 8.5 0 0 1-7.6 4.7 8.38 8.38 0 0 1-3.8-.9L3 21l1.9-5.7a8.38 8.38 0 0 1-.9-3.8 8.5 8.5 0 0 1 4.7-7.6 8.38 8.38 0 0 1 3.8-.9h.5a8.48 8.48 0 0 1 8 8v.5z">
		</path>
	</symbol>

	<!-- Reply -->
	<symbol id="reply" viewBox="0 0 512 512">
		<path
			d="M8.309 189.836L184.313 37.851C199.719 24.546 224 35.347 224 56.015v80.053c160.629 1.839 288 34.032 288 186.258 0 61.441-39.581 122.309-83.333 154.132-13.653 9.931-33.111-2.533-28.077-18.631 45.344-145.012-21.507-183.51-176.59-185.742V360c0 20.7-24.3 31.453-39.687 18.164l-176.004-152c-11.071-9.562-11.086-26.753 0-36.328z">
		</path>
	</symbol>
</svg>