<svg preserveAspectRatio="xMidYMid meet" focusable="false" visibility="hidden"
	style="visibility: hidden;position: absolute; pointer-events: none">
	<symbol id="map_pin" viewBox="0 0 24 24" fill="none" stroke-width="2"
		stroke-linecap="round" stroke-linejoin="round">
		<path d="M21 10c0 7-9 13-9 13s-9-6-9-13a9 9 0 0 1 18 0z"></path>
		<circle cx="12" cy="10" r="3"></circle>
	</symbol>
	<symbol id="calendar" viewBox="0 0 24 24" fill="none" stroke="currrentColor"
		stroke-width="2" stroke-linecap="round" stroke-linejoin="round">
		<rect x="3" y="4" width="18" height="18" rx="2" ry="2"></rect>
		<line x1="16" y1="2" x2="16" y2="6"></line>
		<line x1="8" y1="2" x2="8" y2="6"></line>
		<line x1="3" y1="10" x2="21" y2="10"></line>
	</symbol>
	<symbol id="mail" viewBox="0 0 24 24" fill="none" stroke="currentColor"
		stroke-width="2" stroke-linecap="round" stroke-linejoin="round">
		<path
			d="M4 4h16c1.1 0 2 .9 2 2v12c0 1.1-.9 2-2 2H4c-1.1 0-2-.9-2-2V6c0-1.1.9-2 2-2z">
		</path>
		<polyline points="22,6 12,13 2,6"></polyline>
	</symbol>
	<symbol id="notification" viewBox="0 0 24 24" fill="none"
		stroke="currentColor" stroke-width="2" stroke-linecap="round"
		stroke-linejoin="round">
		<path d="M18 8A6 6 0 0 0 6 8c0 7-3 9-3 9h18s-3-2-3-9"></path>
		<path d="M13.73 21a2 2 0 0 1-3.46 0"></path>
	</symbol>
	<symbol id="search" viewBox="0 0 24 24" fill="none" stroke="currentColor"
		stroke-width="2" stroke-linecap="round" stroke-linejoin="round">
		<circle cx="11" cy="11" r="8"></circle>
		<line x1="21" y1="21" x2="16.65" y2="16.65"></line>
	</symbol>
	<symbol id="home" viewBox="0 0 24 24" fill="none" stroke="currentColor"
		stroke-width="2" stroke-linecap="round" stroke-linejoin="round">
		<path d="M3 9l9-7 9 7v11a2 2 0 0 1-2 2H5a2 2 0 0 1-2-2z"></path>
		<polyline points="9 22 9 12 15 12 15 22"></polyline>
	</symbol>
	<symbol id="heart" viewBox="0 0 24 24" fill="none" stroke="currrentColor"
		stroke-width="2" stroke-linecap="round" stroke-linejoin="round">
		<path
			d="M20.84 4.61a5.5 5.5 0 0 0-7.78 0L12 5.67l-1.06-1.06a5.5 5.5 0 0 0-7.78 7.78l1.06 1.06L12 21.23l7.78-7.78 1.06-1.06a5.5 5.5 0 0 0 0-7.78z">
		</path>
	</symbol>

	<svg id="arrow_left" viewBox="0 0 24 24" fill="none" stroke="currrentColor"
		stroke-width="2" stroke-linecap="round" stroke-linejoin="round">
		<line x1="19" y1="12" x2="5" y2="12"></line>
		<polyline points="12 19 5 12 12 5"></polyline>
	</svg>
	<symbol viewBox="0 0 21 21" id="message" stroke-width="2"
		stroke-linecap="round" stroke-linejoin="round">
		<path
			d="M21 11.5a8.38 8.38 0 0 1-.9 3.8 8.5 8.5 0 0 1-7.6 4.7 8.38 8.38 0 0 1-3.8-.9L3 21l1.9-5.7a8.38 8.38 0 0 1-.9-3.8 8.5 8.5 0 0 1 4.7-7.6 8.38 8.38 0 0 1 3.8-.9h.5a8.48 8.48 0 0 1 8 8v.5z" />
	</symbol>

	<svg id="share" viewBox="0 0 24 24" fill="none" stroke="currrentColor"
		stroke-width="2" stroke-linecap="round" stroke-linejoin="round">
		<path d="M4 12v8a2 2 0 0 0 2 2h12a2 2 0 0 0 2-2v-8"></path>
		<polyline points="16 6 12 2 8 6"></polyline>
		<line x1="12" y1="2" x2="12" y2="15"></line>
	</svg>
</svg>